<svg xmlns="http://www.w3.org/2000/svg" xmlns:xlink="http://www.w3.org/1999/xlink" width="500" zoomAndPan="magnify" viewBox="0 0 375 374.999991" height="500" preserveAspectRatio="xMidYMid meet" version="1.0"><defs><g/><clipPath id="aa069f10e1"><path d="M 79 159 L 307 159 L 307 252 L 79 252 Z M 79 159 " clip-rule="nonzero"/></clipPath><clipPath id="aadc89132d"><path d="M 269.042969 77.238281 L 316.941406 211.449219 L 100.792969 288.589844 L 52.898438 154.378906 Z M 269.042969 77.238281 " clip-rule="nonzero"/></clipPath><clipPath id="bfbd0d25a4"><path d="M 222.667969 -52.710938 L 316.949219 211.46875 L 100.800781 288.609375 L 6.519531 24.429688 Z M 222.667969 -52.710938 " clip-rule="nonzero"/></clipPath><clipPath id="688c8876d8"><path d="M 61 156 L 218 156 L 218 221 L 61 221 Z M 61 156 " clip-rule="nonzero"/></clipPath><clipPath id="f95774bf3d"><path d="M 269.042969 77.238281 L 316.941406 211.449219 L 100.792969 288.589844 L 52.898438 154.378906 Z M 269.042969 77.238281 " clip-rule="nonzero"/></clipPath><clipPath id="7f40d3c53b"><path d="M 222.667969 -52.710938 L 316.949219 211.46875 L 100.800781 288.609375 L 6.519531 24.429688 Z M 222.667969 -52.710938 " clip-rule="nonzero"/></clipPath><clipPath id="76e67d222d"><path d="M 126 37.5 L 256.101562 37.5 L 256.101562 170 L 126 170 Z M 126 37.5 " clip-rule="nonzero"/></clipPath></defs><rect x="-37.5" width="450" fill="#ffffff" y="-37.499999" height="449.999989" fill-opacity="1"/><rect x="-37.5" width="450" fill="#fffaf0" y="-37.499999" height="449.999989" fill-opacity="1"/><g clip-path="url(#aa069f10e1)"><g clip-path="url(#aadc89132d)"><g clip-path="url(#bfbd0d25a4)"><path fill="#076652" d="M 301.246094 183.808594 C 309.253906 190.183594 307.277344 204.066406 298.355469 208.574219 C 286.199219 214.453125 273.691406 219.554688 261.429688 225.203125 C 240.375 234.015625 220.179688 245.78125 197.433594 249.855469 C 183.515625 252.371094 168.867188 253.265625 155.167969 249.117188 C 138.9375 244.472656 124.695312 234.835938 108.617188 229.796875 C 100.117188 227.050781 91.105469 228.355469 82.398438 227.496094 C 78.539062 226.152344 78.789062 219.578125 82.925781 218.957031 C 90.144531 217.972656 97.503906 218.484375 104.695312 219.417969 C 126.84375 223.488281 145.164062 238.875 167.484375 242.25 C 187.777344 244.140625 208.234375 239.140625 226.574219 230.6875 C 248.765625 220.613281 271.152344 210.933594 293.25 200.722656 C 297.261719 199.265625 296.769531 194.664062 297.078125 191.269531 C 294.1875 190.929688 291.167969 188.921875 288.253906 190.230469 C 269.304688 196.699219 250.496094 203.632812 231.5625 210.21875 C 228.324219 211.445312 223.394531 213.0625 222.09375 208.328125 C 220.765625 204.050781 225.328125 202.496094 228.414062 201.46875 C 244.027344 195.875 259.710938 190.546875 275.277344 184.816406 C 273.660156 181.871094 271.066406 176.179688 266.726562 178.632812 C 253.132812 184.050781 240.007812 190.644531 226.445312 196.21875 C 222.382812 199.183594 217.460938 194.378906 219.347656 190.054688 C 229.160156 183.710938 240.703125 180.648438 250.972656 175.117188 C 249.507812 172.386719 247.707031 168.640625 243.925781 169.308594 C 232.722656 172.644531 222.890625 179.265625 212.25 183.894531 C 207.929688 185.585938 204.609375 178.273438 208.332031 176.011719 C 218.777344 170.003906 229.640625 164.414062 241.058594 160.511719 C 249.078125 158.140625 256.546875 164.046875 259.617188 171.132812 C 269.152344 165.597656 280.921875 171.121094 284.003906 181.335938 C 289.773438 179.867188 296.554688 179.382812 301.246094 183.808594 Z M 301.246094 183.808594 " fill-opacity="1" fill-rule="nonzero"/></g></g></g><g clip-path="url(#688c8876d8)"><g clip-path="url(#f95774bf3d)"><g clip-path="url(#7f40d3c53b)"><path fill="#076652" d="M 211.058594 191.746094 C 218.898438 197.523438 220.238281 211.222656 212.234375 217.484375 C 206.621094 221.789062 199.183594 220.992188 192.710938 219.605469 C 177.847656 216.53125 162.828125 214.175781 148.019531 210.914062 C 143.078125 210.519531 142.976562 202.476562 147.960938 201.96875 C 166.316406 204.257812 184.253906 209.492188 202.648438 211.425781 C 209.828125 211.976562 209.914062 201.167969 204.734375 198.605469 C 188.511719 190.824219 170.460938 186.980469 155.195312 177.21875 C 146.316406 172.109375 137.292969 165.015625 126.425781 166.128906 C 105.988281 168.773438 85.886719 173.8125 65.347656 175.609375 C 60.386719 176.058594 59.507812 167.140625 64.5 166.921875 C 84.761719 163.855469 104.910156 159.921875 125.207031 156.941406 C 138.324219 155.273438 149.628906 163.066406 160.292969 169.472656 C 175.992188 179.546875 194.941406 182.679688 211.058594 191.746094 Z M 211.058594 191.746094 " fill-opacity="1" fill-rule="nonzero"/></g></g></g><g clip-path="url(#76e67d222d)"><path fill="#076652" d="M 185.175781 150.839844 C 176.554688 150.839844 169.566406 146.9375 169.566406 142.117188 C 169.566406 137.867188 175.015625 134.324219 182.230469 133.554688 L 182.230469 141.746094 C 182.230469 142.21875 182.613281 142.605469 183.085938 142.605469 L 187.265625 142.605469 C 187.738281 142.605469 188.121094 142.21875 188.121094 141.746094 L 188.121094 133.554688 C 195.332031 134.324219 200.785156 137.867188 200.785156 142.117188 C 200.785156 146.9375 193.796875 150.839844 185.175781 150.839844 Z M 189.824219 128.296875 C 189.261719 128.246094 188.691406 128.207031 188.121094 128.171875 L 188.121094 67.96875 L 224.578125 66.585938 C 225.898438 66.539062 226.398438 64.832031 225.316406 64.078125 L 205.722656 50.398438 C 207.792969 49.75 209.898438 49.128906 212.035156 48.539062 C 227.734375 44.199219 242.9375 42.160156 256.261719 42.210938 C 252.875 42.035156 249.335938 42.007812 245.679688 42.128906 C 246.363281 42.152344 247.042969 42.179688 247.714844 42.210938 C 245.507812 42.203125 243.246094 42.253906 240.941406 42.359375 C 230.101562 43.074219 218.347656 45.050781 206.300781 48.378906 C 205.46875 48.605469 204.648438 48.839844 203.828125 49.078125 L 203.175781 48.625 C 203.277344 48.59375 203.378906 48.566406 203.484375 48.539062 C 216.585938 44.917969 229.335938 42.898438 240.941406 42.359375 C 242.542969 42.257812 244.121094 42.179688 245.679688 42.128906 C 232.511719 41.675781 217.28125 43.363281 201.425781 47.402344 L 188.074219 38.082031 C 187.957031 37.746094 187.640625 37.503906 187.265625 37.503906 L 183.085938 37.503906 C 182.613281 37.503906 182.230469 37.886719 182.230469 38.363281 L 182.230469 53.402344 C 146.335938 66.820312 122.597656 88.9375 127.386719 106.277344 C 130.90625 119.011719 148.960938 126.054688 173.230469 126.160156 C 151.882812 125.042969 136.363281 118.144531 133.128906 106.433594 C 128.597656 90.035156 149.582031 69.367188 182.230469 55.824219 L 182.230469 56.859375 C 151.195312 70.40625 131.539062 90.355469 135.9375 106.277344 C 139.457031 119.011719 157.507812 126.054688 181.777344 126.160156 C 160.429688 125.042969 144.910156 118.144531 141.675781 106.433594 C 137.554688 91.519531 154.550781 73.066406 182.230469 59.65625 L 182.230469 128.242188 C 163.898438 130.214844 150.148438 150.027344 145.496094 157.125 C 167.910156 148.625 163.519531 174.726562 210.582031 167.863281 C 226.21875 165.585938 210.582031 138.871094 235.992188 157.765625 C 234.441406 142.730469 208.546875 130.03125 189.824219 128.296875 " fill-opacity="1" fill-rule="nonzero"/></g><g fill="#de0f3f" fill-opacity="1"><g transform="translate(70.596608, 158.74407)"><g><path d="M 0.578125 -0.09375 L 0.359375 -1.546875 L 3.96875 -5.953125 C 4.375 -6.460938 4.648438 -6.894531 4.796875 -7.25 C 4.953125 -7.613281 5.003906 -7.96875 4.953125 -8.3125 C 4.878906 -8.78125 4.632812 -9.140625 4.21875 -9.390625 C 3.8125 -9.640625 3.335938 -9.722656 2.796875 -9.640625 C 2.273438 -9.566406 1.8125 -9.394531 1.40625 -9.125 C 1 -8.851562 0.578125 -8.441406 0.140625 -7.890625 L -1.25 -9.109375 C -0.71875 -9.765625 -0.128906 -10.285156 0.515625 -10.671875 C 1.171875 -11.066406 1.863281 -11.320312 2.59375 -11.4375 C 3.15625 -11.519531 3.6875 -11.515625 4.1875 -11.421875 C 4.6875 -11.335938 5.128906 -11.179688 5.515625 -10.953125 C 5.898438 -10.722656 6.21875 -10.421875 6.46875 -10.046875 C 6.71875 -9.671875 6.878906 -9.242188 6.953125 -8.765625 C 7.046875 -8.160156 6.976562 -7.578125 6.75 -7.015625 C 6.53125 -6.453125 6.097656 -5.78125 5.453125 -5 L 3.203125 -2.28125 L 7.984375 -3.015625 L 8.25 -1.265625 Z M 0.578125 -0.09375 "/></g></g></g><g fill="#de0f3f" fill-opacity="1"><g transform="translate(79.299438, 157.402532)"><g/></g></g><g fill="#de0f3f" fill-opacity="1"><g transform="translate(82.352264, 156.93194)"><g><path d="M 5.234375 -0.640625 C 4.535156 -0.535156 3.875 -0.570312 3.25 -0.75 C 2.625 -0.925781 2.070312 -1.21875 1.59375 -1.625 C 1.125 -2.039062 0.71875 -2.570312 0.375 -3.21875 C 0.0390625 -3.863281 -0.1875 -4.59375 -0.3125 -5.40625 C -0.4375 -6.21875 -0.4375 -6.984375 -0.3125 -7.703125 C -0.1875 -8.421875 0.0390625 -9.046875 0.375 -9.578125 C 0.707031 -10.109375 1.144531 -10.550781 1.6875 -10.90625 C 2.226562 -11.269531 2.84375 -11.503906 3.53125 -11.609375 C 4.21875 -11.722656 4.875 -11.6875 5.5 -11.5 C 6.125 -11.320312 6.671875 -11.03125 7.140625 -10.625 C 7.617188 -10.21875 8.023438 -9.691406 8.359375 -9.046875 C 8.703125 -8.398438 8.9375 -7.671875 9.0625 -6.859375 C 9.1875 -6.046875 9.1875 -5.28125 9.0625 -4.5625 C 8.945312 -3.84375 8.722656 -3.210938 8.390625 -2.671875 C 8.054688 -2.140625 7.617188 -1.695312 7.078125 -1.34375 C 6.535156 -0.988281 5.921875 -0.753906 5.234375 -0.640625 Z M 4.953125 -2.453125 C 5.765625 -2.578125 6.359375 -3.003906 6.734375 -3.734375 C 7.109375 -4.472656 7.207031 -5.410156 7.03125 -6.546875 C 6.863281 -7.671875 6.484375 -8.523438 5.890625 -9.109375 C 5.304688 -9.691406 4.613281 -9.921875 3.8125 -9.796875 C 3 -9.671875 2.40625 -9.238281 2.03125 -8.5 C 1.65625 -7.769531 1.550781 -6.84375 1.71875 -5.71875 C 1.894531 -4.582031 2.273438 -3.722656 2.859375 -3.140625 C 3.441406 -2.554688 4.140625 -2.328125 4.953125 -2.453125 Z M 4.953125 -2.453125 "/></g></g></g><g fill="#de0f3f" fill-opacity="1"><g transform="translate(92.756175, 155.328181)"><g/></g></g><g fill="#de0f3f" fill-opacity="1"><g transform="translate(95.809001, 154.857589)"><g><path d="M 0.578125 -0.09375 L 0.359375 -1.546875 L 3.96875 -5.953125 C 4.375 -6.460938 4.648438 -6.894531 4.796875 -7.25 C 4.953125 -7.613281 5.003906 -7.96875 4.953125 -8.3125 C 4.878906 -8.78125 4.632812 -9.140625 4.21875 -9.390625 C 3.8125 -9.640625 3.335938 -9.722656 2.796875 -9.640625 C 2.273438 -9.566406 1.8125 -9.394531 1.40625 -9.125 C 1 -8.851562 0.578125 -8.441406 0.140625 -7.890625 L -1.25 -9.109375 C -0.71875 -9.765625 -0.128906 -10.285156 0.515625 -10.671875 C 1.171875 -11.066406 1.863281 -11.320312 2.59375 -11.4375 C 3.15625 -11.519531 3.6875 -11.515625 4.1875 -11.421875 C 4.6875 -11.335938 5.128906 -11.179688 5.515625 -10.953125 C 5.898438 -10.722656 6.21875 -10.421875 6.46875 -10.046875 C 6.71875 -9.671875 6.878906 -9.242188 6.953125 -8.765625 C 7.046875 -8.160156 6.976562 -7.578125 6.75 -7.015625 C 6.53125 -6.453125 6.097656 -5.78125 5.453125 -5 L 3.203125 -2.28125 L 7.984375 -3.015625 L 8.25 -1.265625 Z M 0.578125 -0.09375 "/></g></g></g><g fill="#de0f3f" fill-opacity="1"><g transform="translate(104.511831, 153.51605)"><g/></g></g><g fill="#de0f3f" fill-opacity="1"><g transform="translate(107.564657, 153.045458)"><g><path d="M 0.171875 -5.203125 L -0.421875 -10.828125 L 6.4375 -11.890625 L 6.703125 -10.140625 L 1.53125 -9.34375 L 1.8125 -6.84375 C 2.113281 -7 2.425781 -7.128906 2.75 -7.234375 C 3.070312 -7.335938 3.40625 -7.414062 3.75 -7.46875 C 4.90625 -7.644531 5.882812 -7.488281 6.6875 -7 C 7.5 -6.507812 7.984375 -5.773438 8.140625 -4.796875 C 8.222656 -4.265625 8.195312 -3.757812 8.0625 -3.28125 C 7.925781 -2.8125 7.691406 -2.382812 7.359375 -2 C 7.023438 -1.625 6.601562 -1.300781 6.09375 -1.03125 C 5.582031 -0.769531 5.007812 -0.59375 4.375 -0.5 C 3.625 -0.382812 2.890625 -0.394531 2.171875 -0.53125 C 1.453125 -0.675781 0.796875 -0.941406 0.203125 -1.328125 L 1.234375 -2.921875 C 1.753906 -2.609375 2.238281 -2.398438 2.6875 -2.296875 C 3.144531 -2.203125 3.632812 -2.191406 4.15625 -2.265625 C 4.789062 -2.367188 5.28125 -2.613281 5.625 -3 C 5.976562 -3.382812 6.113281 -3.835938 6.03125 -4.359375 C 5.945312 -4.878906 5.664062 -5.265625 5.1875 -5.515625 C 4.71875 -5.765625 4.15625 -5.835938 3.5 -5.734375 C 3.175781 -5.679688 2.847656 -5.585938 2.515625 -5.453125 C 2.191406 -5.328125 1.882812 -5.175781 1.59375 -5 Z M 0.171875 -5.203125 "/></g></g></g><g fill="#076652" fill-opacity="1"><g transform="translate(62.754956, 269.800552)"><g><path d="M 29.25 5.625 L 3.921875 0.75 L 10.703125 -34.53125 L 36.5625 -29.5625 C 41.15625 -28.675781 44.894531 -27.738281 47.78125 -26.75 C 50.664062 -25.757812 52.828125 -24.660156 54.265625 -23.453125 C 55.703125 -22.242188 56.570312 -20.894531 56.875 -19.40625 C 57.1875 -17.925781 57.160156 -16.226562 56.796875 -14.3125 C 56.453125 -12.8125 55.796875 -11.640625 54.828125 -10.796875 C 53.867188 -9.960938 52.816406 -9.398438 51.671875 -9.109375 C 50.535156 -8.816406 49.578125 -8.75 48.796875 -8.90625 C 49.566406 -8.757812 50.441406 -8.429688 51.421875 -7.921875 C 52.398438 -7.421875 53.316406 -6.789062 54.171875 -6.03125 C 55.023438 -5.28125 55.695312 -4.429688 56.1875 -3.484375 C 56.6875 -2.546875 56.835938 -1.550781 56.640625 -0.5 C 56.367188 0.875 55.960938 2.101562 55.421875 3.1875 C 54.878906 4.28125 54.046875 5.175781 52.921875 5.875 C 51.804688 6.570312 50.25 7.046875 48.25 7.296875 C 46.257812 7.554688 43.722656 7.554688 40.640625 7.296875 C 37.554688 7.046875 33.757812 6.488281 29.25 5.625 Z M 32.375 -15.21875 C 34.539062 -14.800781 36.238281 -14.582031 37.46875 -14.5625 C 38.707031 -14.539062 39.59375 -14.703125 40.125 -15.046875 C 40.664062 -15.398438 41 -15.910156 41.125 -16.578125 C 41.257812 -17.265625 41.140625 -17.867188 40.765625 -18.390625 C 40.398438 -18.921875 39.640625 -19.398438 38.484375 -19.828125 C 37.335938 -20.265625 35.679688 -20.691406 33.515625 -21.109375 L 23.859375 -22.953125 L 22.71875 -17.0625 Z M 30.078125 -3.25 C 32.296875 -2.820312 34.101562 -2.53125 35.5 -2.375 C 36.894531 -2.226562 37.953125 -2.300781 38.671875 -2.59375 C 39.390625 -2.882812 39.835938 -3.488281 40.015625 -4.40625 C 40.191406 -5.332031 40 -6.0625 39.4375 -6.59375 C 38.882812 -7.125 37.929688 -7.578125 36.578125 -7.953125 C 35.222656 -8.328125 33.4375 -8.726562 31.21875 -9.15625 L 21.5625 -11 L 20.421875 -5.09375 Z M 30.078125 -3.25 "/></g></g></g><g fill="#076652" fill-opacity="1"><g transform="translate(117.553776, 285.715547)"><g><path d="M 24.296875 6.96875 C 15.804688 4.8125 10.28125 1.53125 7.71875 -2.875 C 5.550781 -6.582031 5.179688 -11.238281 6.609375 -16.84375 L 11.03125 -34.265625 L 25.640625 -30.546875 L 21.21875 -13.125 C 20.59375 -10.6875 20.515625 -8.660156 20.984375 -7.046875 C 21.660156 -4.722656 23.554688 -3.164062 26.671875 -2.375 C 29.835938 -1.570312 32.253906 -2.03125 33.921875 -3.75 C 35.117188 -5 36.019531 -6.816406 36.625 -9.203125 L 41.046875 -26.625 L 55.671875 -22.921875 L 51.203125 -5.296875 C 49.804688 0.171875 47.285156 4.019531 43.640625 6.25 C 39.265625 8.894531 32.816406 9.132812 24.296875 6.96875 Z M 24.296875 6.96875 "/></g></g></g><g fill="#076652" fill-opacity="1"><g transform="translate(176.460304, 297.962374)"><g><path d="M 45.609375 -5.75 L 3.96875 -0.5 L -0.515625 -36.15625 L 14.453125 -38.046875 L 17.828125 -11.21875 L 44.5 -14.578125 Z M 45.609375 -5.75 "/></g></g></g><g fill="#076652" fill-opacity="1"><g transform="translate(221.855149, 291.555948)"><g><path d="M 25.703125 -8.84375 C 17.390625 -5.707031 10.628906 -5.117188 5.421875 -7.078125 C 0.804688 -8.796875 -2.484375 -12.265625 -4.453125 -17.484375 C -6.421875 -22.722656 -6.242188 -27.515625 -3.921875 -31.859375 C -1.285156 -36.742188 4.1875 -40.753906 12.5 -43.890625 C 17.238281 -45.671875 21.375 -46.617188 24.90625 -46.734375 C 28.445312 -46.859375 31.457031 -46.335938 33.9375 -45.171875 C 36.425781 -44.015625 38.453125 -42.367188 40.015625 -40.234375 L 24.90625 -34.546875 C 22.507812 -36.128906 19.503906 -36.238281 15.890625 -34.875 C 12.492188 -33.59375 10.359375 -31.671875 9.484375 -29.109375 C 8.796875 -27.035156 8.851562 -24.929688 9.65625 -22.796875 C 10.46875 -20.648438 11.804688 -19.046875 13.671875 -17.984375 C 16.023438 -16.628906 18.898438 -16.59375 22.296875 -17.875 C 25.046875 -18.914062 27.023438 -19.929688 28.234375 -20.921875 C 29.441406 -21.921875 30.222656 -22.925781 30.578125 -23.9375 L 25.0625 -21.859375 L 22.828125 -27.765625 L 41.984375 -34.984375 L 48.328125 -18.171875 L 42.46875 -15.953125 L 40.03125 -18.78125 C 37.289062 -14.726562 32.515625 -11.414062 25.703125 -8.84375 Z M 25.703125 -8.84375 "/></g></g></g><g fill="#076652" fill-opacity="1"><g transform="translate(274.30783, 273.308961)"><g><path d="M 42.953125 -19.8125 L 3.625 -1.671875 L -11.421875 -34.3125 L 26.09375 -51.609375 L 29.8125 -43.53125 L 6.015625 -32.5625 L 8.375 -27.453125 L 28.484375 -36.734375 L 31.375 -30.453125 L 11.265625 -21.171875 L 13.625 -16.078125 L 39.234375 -27.890625 Z M 42.953125 -19.8125 "/></g></g></g><g fill="#de0f3f" fill-opacity="1"><g transform="translate(154.295906, 332.110134)"><g><path d="M 14.78125 -6.65625 C 14.78125 -5.707031 14.59375 -4.8125 14.21875 -3.96875 C 13.851562 -3.125 13.359375 -2.394531 12.734375 -1.78125 C 12.109375 -1.164062 11.363281 -0.679688 10.5 -0.328125 C 9.632812 0.0234375 8.707031 0.203125 7.71875 0.203125 C 6.738281 0.203125 5.816406 0.0234375 4.953125 -0.328125 C 4.097656 -0.679688 3.351562 -1.164062 2.71875 -1.78125 C 2.09375 -2.394531 1.597656 -3.125 1.234375 -3.96875 C 0.867188 -4.8125 0.6875 -5.707031 0.6875 -6.65625 C 0.6875 -7.601562 0.867188 -8.5 1.234375 -9.34375 C 1.597656 -10.1875 2.09375 -10.914062 2.71875 -11.53125 C 3.351562 -12.144531 4.097656 -12.628906 4.953125 -12.984375 C 5.816406 -13.335938 6.738281 -13.515625 7.71875 -13.515625 C 8.707031 -13.515625 9.632812 -13.335938 10.5 -12.984375 C 11.363281 -12.628906 12.109375 -12.144531 12.734375 -11.53125 C 13.359375 -10.914062 13.851562 -10.1875 14.21875 -9.34375 C 14.59375 -8.5 14.78125 -7.601562 14.78125 -6.65625 Z M 11.9375 -6.65625 C 11.9375 -7.28125 11.828125 -7.851562 11.609375 -8.375 C 11.398438 -8.90625 11.109375 -9.363281 10.734375 -9.75 C 10.359375 -10.132812 9.910156 -10.4375 9.390625 -10.65625 C 8.867188 -10.875 8.3125 -10.984375 7.71875 -10.984375 C 7.125 -10.984375 6.566406 -10.875 6.046875 -10.65625 C 5.535156 -10.4375 5.09375 -10.132812 4.71875 -9.75 C 4.351562 -9.363281 4.0625 -8.90625 3.84375 -8.375 C 3.625 -7.851562 3.515625 -7.28125 3.515625 -6.65625 C 3.515625 -6.050781 3.625 -5.476562 3.84375 -4.9375 C 4.0625 -4.40625 4.351562 -3.945312 4.71875 -3.5625 C 5.09375 -3.175781 5.535156 -2.867188 6.046875 -2.640625 C 6.566406 -2.421875 7.125 -2.3125 7.71875 -2.3125 C 8.3125 -2.3125 8.867188 -2.421875 9.390625 -2.640625 C 9.910156 -2.867188 10.359375 -3.175781 10.734375 -3.5625 C 11.109375 -3.945312 11.398438 -4.40625 11.609375 -4.9375 C 11.828125 -5.476562 11.9375 -6.050781 11.9375 -6.65625 Z M 11.9375 -6.65625 "/></g></g></g><g fill="#de0f3f" fill-opacity="1"><g transform="translate(169.754153, 332.110134)"><g/></g></g><g fill="#de0f3f" fill-opacity="1"><g transform="translate(173.575928, 332.110134)"><g><path d="M 1.203125 0 L 1.203125 -13.3125 L 7.875 -13.3125 C 8.519531 -13.3125 9.117188 -13.207031 9.671875 -13 C 10.222656 -12.789062 10.691406 -12.5 11.078125 -12.125 C 11.472656 -11.757812 11.78125 -11.320312 12 -10.8125 C 12.226562 -10.300781 12.34375 -9.738281 12.34375 -9.125 C 12.34375 -8.53125 12.226562 -7.984375 12 -7.484375 C 11.78125 -6.984375 11.472656 -6.546875 11.078125 -6.171875 C 10.679688 -5.804688 10.207031 -5.519531 9.65625 -5.3125 C 9.113281 -5.113281 8.519531 -5.015625 7.875 -5.015625 L 3.953125 -5.015625 L 3.953125 0 Z M 7.5625 -10.9375 L 3.953125 -10.9375 L 3.953125 -7.296875 L 7.5625 -7.296875 C 8.164062 -7.296875 8.644531 -7.460938 9 -7.796875 C 9.363281 -8.128906 9.546875 -8.566406 9.546875 -9.109375 C 9.546875 -9.648438 9.363281 -10.085938 9 -10.421875 C 8.644531 -10.765625 8.164062 -10.9375 7.5625 -10.9375 Z M 7.5625 -10.9375 "/></g></g></g><g fill="#de0f3f" fill-opacity="1"><g transform="translate(186.524351, 332.110134)"><g/></g></g><g fill="#de0f3f" fill-opacity="1"><g transform="translate(190.346126, 332.110134)"><g><path d="M 1.203125 0 L 1.203125 -13.3125 L 11.421875 -13.3125 L 11.421875 -10.921875 L 3.953125 -10.921875 L 3.953125 -7.875 L 8.875 -7.875 L 8.875 -5.546875 L 3.953125 -5.546875 L 3.953125 -2.390625 L 11.5 -2.390625 L 11.5 0 Z M 1.203125 0 "/></g></g></g><g fill="#de0f3f" fill-opacity="1"><g transform="translate(202.610047, 332.110134)"><g/></g></g><g fill="#de0f3f" fill-opacity="1"><g transform="translate(206.431822, 332.110134)"><g><path d="M 1.203125 -13.3125 L 3.828125 -13.3125 L 10.4375 -4.703125 L 10.4375 -13.3125 L 13.03125 -13.3125 L 13.03125 0 L 10.59375 0 L 3.796875 -8.90625 L 3.796875 0 L 1.203125 0 Z M 1.203125 -13.3125 "/></g></g></g></svg>